<svg id="Layer_1" data-name="Layer 1" xmlns="http://www.w3.org/2000/svg" viewBox="0 0 111.75 163.95"><title>Ligue 1 Uber Eats logo - Brandlogos.net</title><path d="M401.18,437a2.89,2.89,0,0,0,.13,5.77h.07a2.82,2.82,0,0,0,2.79-2.85v-.1a2.92,2.92,0,0,0-3-2.82Zm-29.94-.23a2.91,2.91,0,0,0-2.82,2.36H374A2.87,2.87,0,0,0,371.24,436.76Zm-10.62,0a3.2,3.2,0,1,0,3.21,3.21v0a3.19,3.19,0,0,0-3.21-3.18Z" transform="translate(-328.13 -302.02)" style="fill:#091c3e"/><path d="M328.13,302V466H439.88V302Zm95.55,60.83a160.44,160.44,0,0,1-20.89,33.45c-11.84,1.8-23.38,1.54-36.1.33l8.3-13.31a145,145,0,0,0,20-.16,135.37,135.37,0,0,0,12.49-20.4,125.54,125.54,0,0,0-9.64-16l8.26-13.21C412.92,342.59,419.15,352.23,423.68,362.85ZM412.4,416l-.59-2.59,4.46-2.46H418v12.17h-2.92v-8.59L412.4,416Zm-38.5,4.72a3.82,3.82,0,0,0,1.9-.39v-3.12l2.82-.36v5a7.37,7.37,0,0,1-4.89,1.51c-4.07,0-6.89-2.79-6.89-6.26s2.79-6.23,7-6.23a10.07,10.07,0,0,1,4.49.85l-.75,2.66a7.43,7.43,0,0,0-3.64-.75c-2.3,0-3.87,1.34-3.87,3.51a3.65,3.65,0,0,0,3.87,3.64Zm-.66-60.43A10.76,10.76,0,1,1,384,371.08,10.76,10.76,0,0,1,373.24,360.33Zm-8-35.94a164.07,164.07,0,0,1,36.1-.33L393,337.37a145,145,0,0,0-20,.16,129.86,129.86,0,0,0-12.53,20.4,144.06,144.06,0,0,0,9.67,16l-8.26,13.21a141.38,141.38,0,0,1-17.58-29.25,154.64,154.64,0,0,1,20.89-33.51ZM364.06,411v12.17h-3V411Zm-5.28,9.64v2.56h-8.85V411.05H353v9.64l5.77,0ZM354,444.56h-1.87v-1.21a4.64,4.64,0,0,1-3.34,1.41,4.69,4.69,0,0,1-4.79-5v-7.94h1.93v7.84A3.09,3.09,0,0,0,349,443a3.14,3.14,0,0,0,3.12-3.38v-7.8H354l0,12.72Zm6.79.23a4.53,4.53,0,0,1-3.28-1.38v1.15h-1.8V431.87h1.8v4.62a4.53,4.53,0,0,1,3.28-1.38h.49a4.84,4.84,0,0,1-.49,9.67Zm10.62-1.61a3.15,3.15,0,0,0,2.66-1.34l1.31,1a4.79,4.79,0,0,1-4,2h-.2a4.82,4.82,0,0,1,0-9.64,4.61,4.61,0,0,1,4.62,4.82v.56h-7.44a3.16,3.16,0,0,0,3,2.69ZM381.74,437H381a2.1,2.1,0,0,0-2,2.36v5.25h-1.84v-9.25h1.74v1.11h.07a2.43,2.43,0,0,1,2.16-1.18h.66Zm-.36-19.12V411h3v7a2.72,2.72,0,0,0,5.44,0l0-7h3v6.82c0,3.61-2.33,5.51-5.77,5.51S381.38,421.48,381.38,417.84Zm13.8,16.2h-6.49v3.08H395v2.1h-6.33v3.15h6.49v2.2h-8.92V431.84h8.92V434Zm1.08-23h8.92v2.56h-5.87v2.2h4.75v2.39h-4.75l0,2.46h6v2.56H396.3V411h0Zm10.23,33.54H404.1v-.85a4.76,4.76,0,0,1-3,1.08h-.2a4.93,4.93,0,0,1,.23-9.84,4.7,4.7,0,0,1,3,1.08v-.85l2.36,0v9.41Zm7.87-7.25h-2.66v4.39c0,.49.36.72.89.72h1.77v2.13h-2.56a2.24,2.24,0,0,1-2.49-2.26v-5h-1.8v-2.13h1.8v-2.66h2.36v2.66h2.66Zm5.44,7.51c-3,0-4.39-1.31-4.69-3.25h2.36c.3,1,1.08,1.34,2.46,1.34,1,0,1.74-.36,1.74-1,0-.36-.26-.62-1.15-.79l-2.26-.52c-2.07-.43-3-1.31-3-2.69,0-2,1.74-3,4.2-3,2.85,0,4.26,1.28,4.39,3.25h-2.36c-.23-1-1-1.34-2.16-1.34s-1.61.33-1.61.92c0,.43.39.66,1.54.85l2,.43c1.9.43,2.82,1.38,2.82,2.66,0,1.77-1.57,3.08-4.3,3.08Z" transform="translate(-328.13 -302.02)" style="fill:#091c3e"/><path d="M411.68,432.53h-2.36v2.66h-1.8v2.13h1.8v5a2.25,2.25,0,0,0,2.49,2.26h2.56v-2.13h-1.77c-.56,0-.89-.23-.89-.72v-4.39h2.66v-2.13h-2.66l0-2.66Zm-25.38,12h8.89V442.4h-6.49v-3.15H395v-2.1h-6.33V434h6.49v-2.16H386.3Zm17.81-8.49a4.52,4.52,0,0,0-3-1.08,5,5,0,0,0-4.72,5.15,4.91,4.91,0,0,0,4.49,4.69h.2a4.7,4.7,0,0,0,3-1.08v.85h2.36v-9.38l-2.36,0,0,.82Zm0,3.8v0a2.78,2.78,0,0,1-2.79,2.85h-.07a2.89,2.89,0,1,1,2.82-3l0,.07Zm17.12-.82-2-.43c-1.15-.23-1.54-.43-1.54-.85,0-.59.59-.92,1.61-.92s2,.3,2.16,1.34h2.36c-.13-2-1.54-3.25-4.39-3.25-2.46,0-4.2,1-4.2,3,0,1.38,1,2.26,3,2.69l2.26.52c.89.16,1.15.43,1.15.79,0,.59-.66,1-1.74,1-1.38,0-2.13-.3-2.46-1.34h-2.36c.3,2,1.74,3.25,4.69,3.25,2.72,0,4.26-1.31,4.26-3.12,0-1.25-.89-2.2-2.79-2.62Z" transform="translate(-328.13 -302.02)" style="fill:#06c167"/><path d="M378.92,436.46h-.07v-1.11h-1.74v9.25H379v-5.25a2.1,2.1,0,0,1,2-2.36h.75v-1.71h-.66A2.47,2.47,0,0,0,378.92,436.46Zm-3,3.51a4.61,4.61,0,0,0-4.62-4.82,4.82,4.82,0,0,0,0,9.64h.2a4.83,4.83,0,0,0,4-2l-1.31-1a3.28,3.28,0,0,1-2.66,1.34,3.07,3.07,0,0,1-3-2.66h7.48l0-.59Zm-7.44-.85a2.85,2.85,0,0,1,5.61,0Zm-16.33.59a3.12,3.12,0,0,1-3.12,3.38,3.07,3.07,0,0,1-3.08-3.34v-7.84H344v7.94a4.72,4.72,0,0,0,4.79,5,4.58,4.58,0,0,0,3.34-1.41v1.21H354V431.94h-1.9l0,7.77Zm9.15-4.56h-.49a4.65,4.65,0,0,0-3.28,1.38v-4.62h-1.8v12.66h1.8v-1.15a4.59,4.59,0,0,0,3.28,1.38,4.83,4.83,0,0,0,5-4.59,4.78,4.78,0,0,0-4.56-5Zm2.59,4.82a3.2,3.2,0,1,1-3.21-3.21A3.2,3.2,0,0,1,363.83,440ZM393,417.84V411h-3l0,7a2.72,2.72,0,0,1-5.44,0v-7h-3v6.82c0,3.61,2.33,5.51,5.77,5.51S393,421.48,393,417.84Zm12.39,2.82h-6V418.2h4.75v-2.43h-4.75v-2.2h5.87V411h-8.92v12.17h9.08v-2.52Zm-31.48-7a8.15,8.15,0,0,1,3.64.75l.75-2.66a10.07,10.07,0,0,0-4.49-.85c-4.13,0-7,2.75-7,6.23s2.79,6.26,6.89,6.26a7.37,7.37,0,0,0,4.89-1.51v-5l-2.82.36v3.12a4.7,4.7,0,0,1-1.9.39,3.7,3.7,0,0,1-3.9-3.67c0-2.16,1.61-3.48,3.9-3.48ZM418,423.18V411H416.3l-4.49,2.46.59,2.56,2.69-1.41v8.56h3ZM349.93,411v12.17h8.85v-2.52H353V411ZM361,411h3v12.17h-3Z" transform="translate(-328.13 -302.02)" style="fill:#fff"/><path d="M407.48,362.78A138.1,138.1,0,0,1,395,383.18a150.32,150.32,0,0,1-20,.16l-8.3,13.31c12.72,1.21,24.26,1.51,36.1-.33a160.44,160.44,0,0,0,20.89-33.45,140.14,140.14,0,0,0-17.58-29.31l-8.26,13.21A126.85,126.85,0,0,1,407.48,362.78ZM370.2,373.9a144.06,144.06,0,0,1-9.67-16A133,133,0,0,1,373,337.5a150.32,150.32,0,0,1,20-.16L401.35,324a164.09,164.09,0,0,0-36.1.33,154.64,154.64,0,0,0-20.89,33.51,142.24,142.24,0,0,0,17.58,29.25l8.26-13.21Z" transform="translate(-328.13 -302.02)" style="fill:#cdfb0a"/><path d="M384,371.08a10.76,10.76,0,1,0-10.76-10.76A10.76,10.76,0,0,0,384,371.08Z" transform="translate(-328.13 -302.02)" style="fill:#fff"/></svg>