<?xml version="1.0" encoding="UTF-8"?><svg id="uuid-9701201e-6edb-442d-bfcb-21f2f453bf7e" xmlns="http://www.w3.org/2000/svg" xmlns:xlink="http://www.w3.org/1999/xlink" viewBox="0 0 158.23 281">
<title>Serie A 2019 logo - Brandlogos.net</title><defs><linearGradient id="uuid-d2b52109-e184-4036-9767-7509df0fccb4" x1="1967.68" y1="-2278.65" x2="2630.22" y2="-2661.16" gradientTransform="translate(-157.68 -75.88) scale(.09 -.09)" gradientUnits="userSpaceOnUse"><stop offset="0" stop-color="#147ad1"/><stop offset="1" stop-color="#002d71"/></linearGradient><linearGradient id="uuid-0f16786e-cbba-4243-8b16-a87fd0fc2b96" x1="3153.75" y1="-2260.14" x2="2531.34" y2="-2695.95" xlink:href="#uuid-d2b52109-e184-4036-9767-7509df0fccb4"/><linearGradient id="uuid-e2d8f84a-3118-4275-a507-cfb29c2394fe" x1="2438.28" y1="-2559.91" x2="2822.5" y2="-2338.08" xlink:href="#uuid-d2b52109-e184-4036-9767-7509df0fccb4"/><linearGradient id="uuid-df7fc64c-5c43-4338-aa0b-012ac5993974" x1="2696.45" y1="-2178.5" x2="2365.58" y2="-1946.82" xlink:href="#uuid-d2b52109-e184-4036-9767-7509df0fccb4"/><linearGradient id="uuid-23e974f5-f9de-4cea-9636-e92a939ac6fd" x1="2502.44" y1="-1931.86" x2="2979.08" y2="-2408.51" xlink:href="#uuid-d2b52109-e184-4036-9767-7509df0fccb4"/><linearGradient id="uuid-b4edf94c-059e-4e9f-9ca0-05e9c0c3ea86" x1="2837.6" y1="-2370.92" x2="2479.38" y2="-2621.75" xlink:href="#uuid-d2b52109-e184-4036-9767-7509df0fccb4"/></defs><path d="M124.19,280.99H34.04C15.23,280.99,0,265.76,0,246.96V34.04C0,15.23,15.23,0,34.04,0h90.16c18.8,0,34.04,15.23,34.04,34.04v212.93c0,18.8-15.24,34.03-34.04,34.03h0Z" style="fill:#fff;"/><path d="M0,220.8v26.17c0,18.8,15.23,34.04,34.04,34.04h90.16c18.8,0,34.04-15.23,34.04-34.04v-26.17H0Z" style="fill:#024494;"/><path d="M136.57,233.3h-2.12c-2.72,0-2.9.3-3.11.78l-4.21,10.09c-1.4,3.35-2.84,6.96-3.4,8.81-.51-1.88-1.43-4.36-3.4-8.99l-4.21-9.91c-.27-.6-1.31-.78-3.61-.78h-2.39c-2.33,0-2.81.21-2.81.68v30.43c0,.57.48.68,2.9.68h1.31c2.39,0,3.05-.12,3.05-.68v-18.04h.18s.21.84.57,1.61l4.84,11.32c.21.51.48.72,2.72.72h1.43c2.3,0,2.45-.18,2.66-.72l4.42-10.9c.42-1.01.72-2.03.72-2.03h.18v18.06c0,.57.45.68,2.95.68h1.29c2.33,0,3.02-.12,3.02-.68v-30.46c.06-.48-.62-.68-2.95-.68" style="fill:#ff1f11;"/><path d="M101.4,233.99c0-.48-.66-.68-3.02-.68h-1.34c-2.45,0-2.9.21-2.9.68v30.43c0,.57.42.68,2.9.68h1.38c2.33,0,3.02-.12,3.02-.68l-.03-30.43Z" style="fill:#fff;"/><path d="M88.47,233.3c.63,0,.78.09.78,2.33v2.09c0,2.15-.18,2.42-.78,2.42h-7.2v24.28c0,.57-.68.68-3.11.68h-1.29c-2.45,0-2.9-.12-2.9-.68v-24.28h-7.2c-.6,0-.78-.18-.78-2.42v-2.09c0-2.33.12-2.33.75-2.33h21.72Z" style="fill:#00be1b;"/><path d="M34.73,258.29h-13.38c-.51,0-.96.21-1.29.54-.33.33-.54.78-.54,1.29v3.14c0,.51.21.96.54,1.29.33.33.78.54,1.29.54h13.38v-6.79ZM57.03,258.83c-.33-.33-.78-.54-1.29-.54h-13.38v6.78h13.38c.51,0,.98-.21,1.29-.54.33-.33.54-.78.54-1.29v-3.14c0-.51-.21-.96-.54-1.28M57.03,246.35c-.33-.33-.78-.54-1.29-.54h-13.38v6.81h13.38c.51,0,.98-.21,1.29-.54.33-.33.54-.78.54-1.29v-3.14c0-.53-.21-.98-.54-1.31M34.73,245.81h-13.38c-.51,0-.96.21-1.29.54-.33.33-.54.78-.54,1.29v3.14c0,.51.21.96.54,1.29s.78.54,1.29.54h13.38v-6.79ZM55.75,240.11H21.35c-.51,0-.96-.21-1.29-.54-.33-.33-.54-.78-.54-1.29v-3.14c0-.51.21-.96.54-1.29s.78-.54,1.29-.54h34.4c.51,0,.98.21,1.29.54.33.33.54.78.54,1.29v3.14c0,.51-.21.96-.54,1.29s-.78.54-1.29.54" style="fill:#e40d2c;"/><polygon points="19.63 140.83 79.47 178.13 55.89 140.83 19.63 140.83" style="fill:url(#uuid-d2b52109-e184-4036-9767-7509df0fccb4);"/><polygon points="102.52 140.83 79.47 178.13 138.79 140.83 102.52 140.83" style="fill:url(#uuid-0f16786e-cbba-4243-8b16-a87fd0fc2b96);"/><polygon points="55.89 140.83 79.47 178.13 79.47 140.83 55.89 140.83" style="fill:url(#uuid-e2d8f84a-3118-4275-a507-cfb29c2394fe);"/><polygon points="79.21 76.33 55.89 140.83 79.47 140.83 79.21 76.33" style="fill:url(#uuid-df7fc64c-5c43-4338-aa0b-012ac5993974);"/><polygon points="79.21 76.33 79.47 140.83 102.52 140.83 79.21 76.33" style="fill:url(#uuid-23e974f5-f9de-4cea-9636-e92a939ac6fd);"/><polygon points="79.47 140.83 79.47 178.13 102.52 140.83 79.47 140.83" style="fill:url(#uuid-b4edf94c-059e-4e9f-9ca0-05e9c0c3ea86);"/><path d="M138.79,140.83h0L91.38,30.48h-24.61l-47.14,110.35h36.26l23.31-64.5,10.88,30.05h-10.88l-6.22,18.65h23.83l5.7,15.8h36.27Z" style="fill:#008fd7;"/><path d="M27.09,210.44c-1.79,0-3.52-.31-5.19-.93-1.67-.61-2.98-1.39-3.94-2.32-.18-.18-.2-.38-.04-.59l2.65-3.03c.14-.18.31-.2.52-.03,2.04,1.63,4.11,2.44,6.2,2.44,1.2,0,2.15-.25,2.84-.77s1.03-1.2,1.03-2.05c0-.74-.27-1.32-.82-1.74s-1.5-.72-2.84-.91l-1.25-.17c-4.99-.7-7.49-3.07-7.49-7.1,0-2.18.76-3.94,2.28-5.26s3.56-1.98,6.12-1.98c3.23,0,5.91.82,8.05,2.47.21.14.23.31.07.52l-2.12,3.17c-.14.18-.3.22-.49.1-1.86-1.2-3.69-1.81-5.5-1.81-1.02,0-1.81.24-2.35.72s-.82,1.1-.82,1.86c0,.7.29,1.26.86,1.69s1.51.74,2.84.93l1.25.17c4.97.67,7.45,3.07,7.45,7.17,0,2.23-.8,4.03-2.42,5.4-1.62,1.36-3.91,2.05-6.88,2.05h0Z" style="fill:#002d71;"/><path d="M39.91,209.71v-22.99c0-.23.11-.35.35-.35h15.18c.23,0,.35.11.35.35v3.73c0,.23-.11.35-.35.35h-10.2c-.14,0-.21.07-.21.21v4.7c0,.14.07.21.21.21h8.5c.23,0,.35.11.35.35v3.69c0,.23-.11.35-.35.35h-8.5c-.14,0-.21.07-.21.21v4.91c0,.14.07.21.21.21h10.21c.23,0,.35.11.35.35v3.73c0,.23-.11.35-.35.35h-15.19c-.23,0-.35-.11-.35-.35h0Z" style="fill:#002d71;"/><path d="M78.2,210.06h-4.95c-.25,0-.43-.11-.52-.35l-4.07-8.68h-3.17c-.14,0-.21.07-.21.21v8.47c0,.23-.11.35-.35.35h-4.42c-.23,0-.35-.11-.35-.35v-22.99c0-.23.11-.35.35-.35h9.44c2.41,0,4.36.68,5.84,2.04,1.48,1.36,2.21,3.13,2.21,5.31,0,1.51-.37,2.84-1.12,3.99-.74,1.15-1.77,2.02-3.1,2.6l4.67,9.33c.04.1.04.18,0,.28-.06.1-.14.14-.25.14ZM69.66,196.68c.98,0,1.76-.27,2.33-.8.58-.53.87-1.25.87-2.16s-.29-1.59-.87-2.12c-.58-.53-1.36-.8-2.33-.8h-4.18c-.14,0-.21.07-.21.21v5.47c0,.14.07.21.21.21h4.18Z" style="fill:#002d71;"/><path d="M82.08,209.71v-22.99c0-.23.11-.35.35-.35h4.42c.23,0,.35.11.35.35v22.99c0,.23-.11.35-.35.35h-4.42c-.23,0-.35-.11-.35-.35Z" style="fill:#002d71;"/><path d="M92.28,209.71v-22.99c0-.23.11-.35.35-.35h15.18c.23,0,.35.11.35.35v3.73c0,.23-.11.35-.35.35h-10.21c-.14,0-.21.07-.21.21v4.7c0,.14.07.21.21.21h8.5c.23,0,.35.11.35.35v3.69c0,.23-.11.35-.35.35h-8.5c-.14,0-.21.07-.21.21v4.91c0,.14.07.21.21.21h10.21c.23,0,.35.11.35.35v3.73c0,.23-.11.35-.35.35h-15.18c-.23,0-.35-.11-.35-.35h0Z" style="fill:#002d71;"/><path d="M119.1,209.71l8.15-22.99c.07-.23.22-.35.45-.35h4.39c.23,0,.38.11.45.35l8.01,22.99c.07.23-.01.35-.24.35h-4.53c-.23,0-.38-.11-.45-.35l-1.36-4.14h-8.29l-1.32,4.14c-.07.23-.22.35-.45.35h-4.56c-.24,0-.32-.11-.25-.35h0ZM127.11,201.21h5.47l-2.68-8.29h-.11l-2.68,8.29Z" style="fill:#002d71;"/></svg>